<svg height="18" viewBox="0 0 18 18" width="18" xmlns="http://www.w3.org/2000/svg"><path d="m17.7245713 16.3962758-4.3471145-4.3473023c2.2731324-2.92901358 2.0674063-7.17204384-.6211238-9.86019815-1.4115252-1.41152525-3.2880478-2.18877535-5.28387274-2.18877535-1.99601282 0-3.87234753.7772501-5.28368491 2.18877535-1.41152525 1.41133738-2.18877535 3.28785997-2.18877535 5.28387279 0 1.99601281.77743797 3.87253536 2.18858747 5.28406066 1.41152526 1.4113374 3.28785997 2.1885875 5.28387279 2.1885875 1.67925099 0 3.27264184-.5519847 4.57707684-1.567088l4.3467387 4.3467387c.1833687.1833687.4238522.275053.6641478.275053s.4809669-.0916843.6641477-.275053c.367113-.367113.367113-.9619339 0-1.3286712zm-14.20750052-4.9684261c-1.05662426-1.0566242-1.63848153-2.46138587-1.63848153-3.95538944 0-1.49419145.58185727-2.89876523 1.63866941-3.95538948 1.05643637-1.05662426 2.46101015-1.63848153 3.9552016-1.63848153 1.49400357 0 2.89895314.58185727 3.95557734 1.63848153 2.1808845 2.18088448 2.1808845 5.72951872 0 7.91059112-1.0566242 1.0566242-2.46157377 1.6384815-3.95557734 1.6384815-1.49419145.0001879-2.89876523-.5816694-3.95538948-1.6382937z" fill="#fff"/></svg>